<svg data-v-a8c793d2="" data-v-7dc9d29e="" xmlns="http://www.w3.org/2000/svg" xmlns:xlink="http://www.w3.org/1999/xlink" width="25" height="25" viewBox="0 0 25 25" class="icon stat-ebook-writer-icon"><defs data-v-a8c793d2="" data-v-7dc9d29e=""><circle data-v-a8c793d2="" data-v-7dc9d29e="" id="a" cx="12.5" cy="12.5" r="12.5"></circle></defs> <g data-v-a8c793d2="" data-v-7dc9d29e="" fill="none" fill-rule="evenodd"><mask data-v-a8c793d2="" data-v-7dc9d29e="" id="b" fill="#fff"><use data-v-a8c793d2="" data-v-7dc9d29e="" xlink:href="#a"></use></mask> <use data-v-a8c793d2="" data-v-7dc9d29e="" fill="#E1EFFF" xlink:href="#a"></use> <path data-v-a8c793d2="" data-v-7dc9d29e="" fill="#7BB9FF" d="M18 15H9.5a1.5 1.5 0 0 0 0 3H18v1H8.5A1.5 1.5 0 0 1 7 17.5v-10A1.5 1.5 0 0 1 8.5 6H18v9zm0 1v1H9.5a.481.481 0 0 1-.5-.5c0-.276.193-.5.5-.5H18zm-4.5-6a.5.5 0 1 0 0 1h2a.5.5 0 1 0 0-1h-2zm-1-2a.5.5 0 1 0 0 1h3a.5.5 0 1 0 0-1h-3z" mask="url(#b)"></path></g></svg>