<svg data-v-a8c793d2="" data-v-7dc9d29e="" xmlns="http://www.w3.org/2000/svg" xmlns:xlink="http://www.w3.org/1999/xlink" width="25" height="25" viewBox="0 0 25 25" class="icon stat-cobuilder-icon"><defs data-v-a8c793d2="" data-v-7dc9d29e=""><circle data-v-a8c793d2="" data-v-7dc9d29e="" id="a" cx="12.5" cy="12.5" r="12.5"></circle></defs> <g data-v-a8c793d2="" data-v-7dc9d29e="" fill="none" fill-rule="evenodd"><mask data-v-a8c793d2="" data-v-7dc9d29e="" id="b" fill="#fff"><use data-v-a8c793d2="" data-v-7dc9d29e="" xlink:href="#a"></use></mask> <use data-v-a8c793d2="" data-v-7dc9d29e="" fill="#E1EFFF" xlink:href="#a"></use> <path data-v-a8c793d2="" data-v-7dc9d29e="" fill="#7BB9FF" fill-rule="nonzero" d="M17.357 13.752l-.023.024c-.094.073-.211.12-.305.097-.14 0-.234-.073-.327-.17l-.235-.24-.632-.652c-.094-.073-.07-.218-.047-.338.094-.242.07-.556-.117-.749l-.515-.531c-.047.048-.094.072-.14.097-.188.169-.352.362-.54.53a.836.836 0 0 1-.233.75.8.8 0 0 1-.586.24v.025l-.187-.144-1.215 1.284-.107.416-4.321 4.455a.453.453 0 0 1-.516.12 1.042 1.042 0 0 1-.257-.192c-.281-.314-.586-.604-.89-.918A.52.52 0 0 1 6 17.494a.5.5 0 0 1 .14-.362c.746-.754 2.131-2.18 4.157-4.277l.352-.164 1.322-1.377-.093-.097c-.07-.29 0-.58.21-.797a.78.78 0 0 1 .656-.241c.117-.12.258-.241.351-.41a.187.187 0 0 0 .047-.121c.07-.193.047-.435-.023-.628-.117-.314-.328-.603-.515-.869-.188-.217-.375-.434-.586-.628l-.047-.048c-.726-.652-1.111-.938-2-1.276.217-.224.408-.22 1.017-.172.234 0 .468.048.702.072.07 0 .14.024.211.024.422.048.82.12 1.241.217.117.025.21.049.328.097.187.048.351.12.515.217.187.073.328.242.468.387l.773.796c.351.362.726.725 1.077 1.087.094.096.211.193.258.338a.449.449 0 0 1-.023.386c-.047.096-.117.145-.188.241.164.17.328.338.469.507.07.073.117.17.21.193.164.194.469.218.726.145.117-.024.258-.024.328.073l.422.507.35.434c.071.097.141.218.141.362.024.145-.07.29-.164.387-.398.338-1.053.893-1.475 1.255z" mask="url(#b)" transform="matrix(-1 0 0 1 25 0)"></path></g></svg>