<svg data-v-a8c793d2="" data-v-7dc9d29e="" xmlns="http://www.w3.org/2000/svg" xmlns:xlink="http://www.w3.org/1999/xlink" width="25" height="25" viewBox="0 0 25 25" class="icon stat-author-icon"><defs data-v-a8c793d2="" data-v-7dc9d29e=""><circle data-v-a8c793d2="" data-v-7dc9d29e="" id="a" cx="12.5" cy="12.5" r="12.5"></circle></defs> <g data-v-a8c793d2="" data-v-7dc9d29e="" fill="none" fill-rule="evenodd"><mask data-v-a8c793d2="" data-v-7dc9d29e="" id="b" fill="#fff"><use data-v-a8c793d2="" data-v-7dc9d29e="" xlink:href="#a"></use></mask> <use data-v-a8c793d2="" data-v-7dc9d29e="" fill="#E1EFFF" xlink:href="#a"></use> <g data-v-a8c793d2="" data-v-7dc9d29e="" mask="url(#b)"><g data-v-a8c793d2="" data-v-7dc9d29e="" fill="#7BB9FF" fill-rule="nonzero"><path data-v-a8c793d2="" data-v-7dc9d29e="" d="M10.273 20.16l-.978-2.297-2.477.302 2.51-4.325 1.164 1.9 2.29.095z"></path> <path data-v-a8c793d2="" data-v-7dc9d29e="" d="M14.827 20.16l.978-2.297 2.477.302-2.51-4.325-1.164 1.9-2.29.095z"></path></g> <path data-v-a8c793d2="" data-v-7dc9d29e="" fill-rule="nonzero" stroke="#E1EFFF" stroke-width="1.5" d="M7 10.5a5.5 5.5 0 1 0 11 0 5.5 5.5 0 0 0-11 0z"></path> <path data-v-a8c793d2="" data-v-7dc9d29e="" fill="#7BB9FF" fill-rule="nonzero" d="M7.002 10.5a5.5 5.5 0 1 1 11 0 5.5 5.5 0 0 1-11 0zm5.769-2.422a.3.3 0 0 0-.543 0l-.655 1.398-1.496.228a.3.3 0 0 0-.17.506L11 11.33l-.255 1.56a.3.3 0 0 0 .442.311l1.312-.725 1.315.726a.3.3 0 0 0 .44-.311L14 11.329l1.092-1.119a.3.3 0 0 0-.169-.506l-1.496-.228-.656-1.398z"></path></g></g></svg>