<svg data-v-a8c793d2="" data-v-7dc9d29e="" xmlns="http://www.w3.org/2000/svg" width="25" height="26" viewBox="0 0 25 26" class="zan"><g data-v-a8c793d2="" data-v-7dc9d29e="" fill="none" fill-rule="evenodd" transform="translate(0 .57)"><ellipse data-v-a8c793d2="" data-v-7dc9d29e="" cx="12.5" cy="12.57" fill="#E1EFFF" rx="12.5" ry="12.57"></ellipse> <path data-v-a8c793d2="" data-v-7dc9d29e="" fill="#7BB9FF" d="M8.596 11.238V19H7.033C6.463 19 6 18.465 6 17.807v-5.282c0-.685.483-1.287 1.033-1.287h1.563zm4.275-4.156A1.284 1.284 0 0 1 14.156 6c.885.016 1.412.722 1.595 1.07.334.638.343 1.687.114 2.361-.207.61-.687 1.412-.687 1.412h3.596c.38 0 .733.178.969.488.239.317.318.728.21 1.102l-1.628 5.645a1.245 1.245 0 0 1-1.192.922h-7.068v-7.889c1.624-.336 2.623-2.866 2.806-4.029z"></path></g></svg>