<svg data-v-a8c793d2="" data-v-7dc9d29e="" xmlns="http://www.w3.org/2000/svg" width="25" height="25" viewBox="0 0 25 25" class="icon stat-jp-icon"><g data-v-a8c793d2="" data-v-7dc9d29e="" fill="none" fill-rule="evenodd"><circle data-v-a8c793d2="" data-v-7dc9d29e="" cx="12.5" cy="12.5" r="12.5" fill="#E1EFFF"></circle> <path data-v-a8c793d2="" data-v-7dc9d29e="" fill="#7BB9FF" d="M16.694 13.516l-3.719 3.055a1.1 1.1 0 0 1-1.412-.013l-2.77-2.362-3.597 2.437a.693.693 0 0 1-.895-.101.649.649 0 0 1-.008-.876l3.68-4.096a1.1 1.1 0 0 1 1.507-.122l2.653 2.135 2.248-2.4-1.34-1.358a.5.5 0 0 1 .327-.85l5.438-.313a.5.5 0 0 1 .528.533l-.368 5.449a.5.5 0 0 1-.855.317l-1.417-1.435z"></path></g></svg>