<svg data-v-16502d71="" xmlns="http://www.w3.org/2000/svg" aria-hidden="true" width="15" height="15" viewBox="0 0 15 15"><path data-v-16502d71="" fill="#007FFF" fill-rule="nonzero" d="M6.561 11.538c.329-.33.892-.33 1.268-.047.328.375.328.939 0 1.267l-1.08 1.08a3.939 3.939 0 0 1-5.587 0 3.939 3.939 0 0 1 0-5.587L3.744 5.67a3.939 3.939 0 0 1 5.587 0c.329.376.329.939 0 1.268-.376.328-.939.328-1.268 0a2.21 2.21 0 0 0-1.549-.658c-.61 0-1.127.235-1.55.658L2.384 9.519a2.21 2.21 0 0 0 0 3.098 2.21 2.21 0 0 0 1.549.658c.61 0 1.127-.235 1.55-.658l1.079-1.08zm7.277-10.376c1.55 1.502 1.55 4.037 0 5.587L11.256 9.33a3.939 3.939 0 0 1-5.587 0l-.047-.047a.868.868 0 0 1 .047-1.174c.376-.328.939-.328 1.268 0a2.21 2.21 0 0 0 1.549.658c.61 0 1.127-.235 1.55-.658l2.581-2.582a2.21 2.21 0 0 0 0-3.099 2.21 2.21 0 0 0-1.549-.657c-.61 0-1.127.235-1.55.657l-1.08 1.08c-.375.329-.938.329-1.267 0-.328-.375-.328-.939 0-1.267l1.08-1.08a3.939 3.939 0 0 1 5.587 0z"></path></svg>