<?xml version="1.0" standalone="no"?><!DOCTYPE svg PUBLIC "-//W3C//DTD SVG 1.1//EN" "http://www.w3.org/Graphics/SVG/1.1/DTD/svg11.dtd"><svg t="1588908522288" class="icon" viewBox="0 0 1025 1024" version="1.1" xmlns="http://www.w3.org/2000/svg" p-id="5399" width="32.03125" height="32" xmlns:xlink="http://www.w3.org/1999/xlink"><defs><style type="text/css"></style></defs><path d="M639.587844 571.975783c50.645853-59.52346 104.044532-139.931555 104.044532-226.090907 0-155.69225-103.608583-282.240365-231.039853-282.240365-127.308468 0-231.166749 126.548115-231.166749 282.240365 0 86.159352 32.64094 143.930828 97.855279 224.590668 107.547477 158.751059-244.1081 170.379445-297.256057 283.614731-15.755578 33.636665-18.509427 59.712781-18.261775 89.784076 0 3.878517-0.370455 7.877789 1.566757 11.065541 1.937212 3.130444 4.938713 5.066632 8.192982 5.066632l876.887561 0c3.127374 0 6.190276-1.937212 8.065063-5.066632 1.937212-3.187752 1.563687-7.125623 1.563687-11.065541 0.62834-33.637688-3.87647-63.776525-12.693699-82.22148C890.886038 743.295692 484.891318 752.172275 639.587844 571.975783z" p-id="5400" fill="#b2bac2"></path></svg>