<?xml version="1.0" standalone="no"?><!DOCTYPE svg PUBLIC "-//W3C//DTD SVG 1.1//EN" "http://www.w3.org/Graphics/SVG/1.1/DTD/svg11.dtd"><svg t="1588908636990" class="icon" viewBox="0 0 1024 1024" version="1.1" xmlns="http://www.w3.org/2000/svg" p-id="7672" xmlns:xlink="http://www.w3.org/1999/xlink" width="32" height="32"><defs><style type="text/css"></style></defs><path d="M160.755264 64.708767c-52.871161 0-96.052636 43.177382-96.052636 96.010681L64.702628 384.970862c0 52.749388 30.578436 126.584 68.009953 163.941839l382.333802 382.327662c37.314861 37.399795 98.380658 37.399795 135.775336 0l280.4606-280.413528c37.352723-37.394678 37.352723-98.506525 0-135.859247L548.912701 132.635833c-37.357839-37.394678-111.109564-67.927065-163.941839-67.927065L160.755264 64.708767 160.755264 64.708767zM288.335964 384.184963c-52.913117 0-95.842859-42.930765-95.842859-95.842859 0-52.91721 42.929742-95.842859 95.842859-95.842859 52.916187 0 95.842859 42.929742 95.842859 95.842859C384.178823 341.253174 341.252151 384.184963 288.335964 384.184963L288.335964 384.184963zM288.335964 384.184963" p-id="7673" fill="#b2bac2"></path></svg>