<?xml version="1.0" standalone="no"?><!DOCTYPE svg PUBLIC "-//W3C//DTD SVG 1.1//EN" "http://www.w3.org/Graphics/SVG/1.1/DTD/svg11.dtd"><svg t="1588908715954" class="icon" viewBox="0 0 1024 1024" version="1.1" xmlns="http://www.w3.org/2000/svg" p-id="9931" xmlns:xlink="http://www.w3.org/1999/xlink" width="32" height="32"><defs><style type="text/css"></style></defs><path d="M536 880H164a20 20 0 0 1-20-20V164a20 20 0 0 1 20-20h372a40 40 0 0 0 40-40 40 40 0 0 0-40-40H104a40 40 0 0 0-40 40v816a40 40 0 0 0 40 40h432a40 40 0 0 0 40-40 40 40 0 0 0-40-40z" fill="#999999" p-id="9932"></path><path d="M959.78 508l-0.06-0.48c0-0.39-0.08-0.78-0.14-1.16 0-0.13 0-0.26-0.05-0.39a1.85 1.85 0 0 1 0-0.23 39.85 39.85 0 0 0-11.24-22.13l-152-151.92a40 40 0 0 0-56.57 0 40 40 0 0 0 0 56.57L823.5 472H296a40 40 0 0 0-40 40 40 40 0 0 0 40 40h527.35l-84 83.72a40 40 0 0 0 0 56.57 40 40 0 0 0 56.56 0l152.37-151.88a39.91 39.91 0 0 0 11.5-32.41z" fill="#999999" p-id="9933"></path></svg>