<?xml version="1.0" standalone="no"?><!DOCTYPE svg PUBLIC "-//W3C//DTD SVG 1.1//EN" "http://www.w3.org/Graphics/SVG/1.1/DTD/svg11.dtd"><svg t="1589684123683" class="icon" viewBox="0 0 1024 1024" version="1.1" xmlns="http://www.w3.org/2000/svg" p-id="1763" xmlns:xlink="http://www.w3.org/1999/xlink" width="48" height="48"><defs><style type="text/css"></style></defs><path d="M911.330758 158.080968c0-0.516042 0-1.032085 0-1.548127L911.330758 100.284226c0-17.717453-14.277171-31.994625-31.994625-31.994625-17.717453 0-31.994625 14.277171-31.994625 31.994625 0 0 0 25.802117-25.802117 25.802117l-622.69108 0c-25.802117 0-25.802117-25.802117-25.802117-25.802117 0-17.717453-14.277171-31.994625-31.994625-31.994625S109.056946 82.566773 109.056946 100.284226l0 153.952629c0 17.717453 14.277171 31.994625 31.994625 31.994625s31.994625-14.277171 31.994625-31.994625l0-0.172014c0-63.989249 63.989249-63.989249 63.989249-63.989249l152.060474 0c13.589115 1.204099 56.248614 8.944734 59.688896 57.452713l0 584.847976c-3.440282 48.507979-46.099782 56.248614-59.688896 57.452713l-37.843104 0c-17.717453 0-31.994625 14.277171-31.994625 31.994625s14.277171 31.994625 31.994625 31.994625l129.526625 0 0 0 0 0 59.172854 0 0 0 0 0 129.526625 0c17.717453 0 31.994625-14.277171 31.994625-31.994625s-14.277171-31.994625-31.994625-31.994625l-38.015118 0c-13.589115-1.204099-56.248614-8.944734-59.688896-57.452713l0-584.847976c3.440282-48.507979 46.099782-56.248614 59.688896-57.452713l151.88846 0c0 0 63.989249-0.172014 63.989249 63.989249l0 0.172014c0 17.717453 14.277171 31.994625 31.994625 31.994625s31.994625-14.277171 31.994625-31.994625l0-94.607761C911.330758 159.113052 911.330758 158.59701 911.330758 158.080968z" p-id="1764" fill="#b2bac2"></path></svg>