<?xml version="1.0" standalone="no"?><!DOCTYPE svg PUBLIC "-//W3C//DTD SVG 1.1//EN" "http://www.w3.org/Graphics/SVG/1.1/DTD/svg11.dtd"><svg t="1587612719499" class="icon" viewBox="0 0 1024 1024" version="1.1" xmlns="http://www.w3.org/2000/svg" p-id="5605" xmlns:xlink="http://www.w3.org/1999/xlink" width="64" height="64"><defs><style type="text/css"></style></defs><path d="M625.423059 867.388235c0 56.982588-48.790588 103.122824-108.965647 103.122824-60.114824 0-108.905412-46.140235-108.905412-103.122824zM516.577882 129.626353a316.837647 316.837647 0 0 1 316.837647 316.837647l-0.060235 177.573647 66.499765 158.418824a29.455059 29.455059 0 0 1-27.888941 38.189176H161.008941a29.334588 29.334588 0 0 1-27.708235-38.912l66.439529-157.936941V446.464a316.837647 316.837647 0 0 1 316.837647-316.837647zM516.457412 6.746353c42.285176 0 76.498824 34.213647 76.498823 76.498823h-152.997647c0-42.285176 34.334118-76.498824 76.498824-76.498823z" p-id="5606" fill="#007fff"></path></svg>