<svg data-v-16502d71="" xmlns="http://www.w3.org/2000/svg" aria-hidden="true" width="20" height="20" viewBox="0 0 20 20"><g data-v-16502d71="" fill="none" fill-rule="evenodd"><path data-v-16502d71="" d="M0 0h20v20H0z"></path> <path data-v-16502d71="" fill="#37C700" stroke="#37C700" stroke-linejoin="round" stroke-width=".964" d="M5.344 8.833V17H4.072C3.482 17 3 16.424 3 15.716V10.22c0-.739.502-1.387 1.072-1.387h1.272zM10.6 4.166c.106-.693.692-1.179 1.335-1.166.918.018 1.465.777 1.655 1.153.346.686.356 1.816.118 2.542-.215.657-.713 1.52-.713 1.52h3.732c.395 0 .762.193 1.006.526.248.341.33.784.218 1.187l-1.69 6.08c-.153.584-.662.992-1.236.992H7.219V8.504c1.686-.361 3.191-3.086 3.381-4.338z"></path></g></svg>