<svg data-v-a3f26b5c="" xmlns="http://www.w3.org/2000/svg" width="21" height="18" viewBox="0 0 21 18" class="icon position-icon"><g data-v-a3f26b5c="" fill="none" fill-rule="evenodd"><path data-v-a3f26b5c="" fill="#72777B" d="M3 8.909V6.947a1 1 0 0 1 1-1h13a1 1 0 0 1 1 1V8.92l-6 2.184v-.42c0-.436-.336-.79-.75-.79h-1.5c-.414 0-.75.354-.75.79v.409L3 8.909zm0 .7l6 2.184v.47c0 .436.336.79.75.79h1.5c.414 0 .75-.354.75-.79v-.46l6-2.183V16a1 1 0 0 1-1 1H4a1 1 0 0 1-1-1V9.609zm6.75 1.075h1.5v1.58h-1.5v-1.58z"></path> <path data-v-a3f26b5c="" stroke="#72777B" d="M7.5 5.213V4A1.5 1.5 0 0 1 9 2.5h3A1.5 1.5 0 0 1 13.5 4v1.213"></path></g></svg>