<svg width="366" height="76" viewBox="0 0 366 76" fill="none" xmlns="http://www.w3.org/2000/svg">
<path d="M47.82 47.48H47.83L77.03 24.44L69.11 18.08L47.83 34.88H47.82L47.81 34.89L26.53 18.1L18.62 24.46L47.81 47.49L47.82 47.48Z" fill="#1E80FF"/>
<path d="M47.82 19.09L59.14 10.09L47.82 1.00999L47.81 0.98999L36.51 10.07L47.81 19.08L47.82 19.09Z" fill="#1E80FF"/>
<path d="M47.82 63.22L47.81 63.23L8.73 32.4L0.820007 38.75L1.58 39.36L47.82 75.82L77.05 52.77L94.83 38.74L86.91 32.38L47.82 63.22Z" fill="#1E80FF"/>
<path d="M357.03 50.21H351.35L348.04 62.66H339.76V45.77H362.58V40.36H339.76V30.78H356.46V25.37H317.39V30.78H334.09V40.36H311.27V45.77H334.09V62.66H325.8L322.49 50.21H316.81L320.15 62.66H309.61V68.07H364.24V62.66H353.7L357.03 50.21Z" fill="#323232"/>
<path d="M349.64 9.84998L348.78 8.84998H325.05L324.19 9.84998C319.645 15.0122 314.514 19.6267 308.9 23.6V30.2601C311.38 28.6701 322.01 21.6299 327.74 14.3199H346.2C351.92 21.6299 362.56 28.6701 365.04 30.2601V23.6C359.388 19.6334 354.219 15.0186 349.64 9.84998Z" fill="#323232"/>
<path d="M254.45 23.7899H258.7V18.37H254.45V8.71008H249.11V18.37H244.9V23.7899H249.12V40.5201L244.9 41.9801V47.9801L249.12 46.5201V56.41C248.938 60.4242 248.181 64.3915 246.87 68.1901H252.47C253.668 64.3723 254.341 60.4093 254.47 56.41V44.67L258.73 43.1901V37.13L254.47 38.61L254.45 23.7899Z" fill="#323232"/>
<path d="M265.9 8.71008H261.82V56.4301C261.852 60.4155 261.351 64.3874 260.33 68.2401H265.9C266.79 64.3671 267.23 60.404 267.21 56.4301V27.11H301V8.71008H265.9ZM295.62 21.7101H267.23V14.13H295.61L295.62 21.7101Z" fill="#323232"/>
<path d="M295.61 63.54H288.29V48.25H294.85H296.67H299.9V32.57H294.85V43.58H288.29V30.77H283.24V43.58H276.81V32.57H271.76V48.25H274.21H276.81H283.24V63.54H276V52.23H270.94V68.21H274.18H276H295.61H296.62H300.66V52.23H295.61V63.54Z" fill="#323232"/>
<path d="M142.47 8.79004V13.92L152.06 17.33L142.47 20.73V25.86L159.27 19.89L176.07 25.86V20.73L166.48 17.33L176.07 13.92V8.79004L159.27 14.76L142.47 8.79004Z" fill="#323232"/>
<path d="M214.49 32.25H237.59V26.32H214.49V8.47998H208.02V26.32H184.92V32.25H208.02V62.41H181.91V68.34H240.6V62.41H214.49V32.25Z" fill="#323232"/>
<path d="M131.63 15.4L140.57 14.84V9.65002L117.56 11.1V16.29L126.5 15.72V23.72H117.29V28.84H126.5V68.24H131.63V28.84H140.84V23.72H131.63V15.4Z" fill="#323232"/>
<path d="M154.9 25.0699H149.57L148.28 28.6901H142.46V33.6901H146.51L141.26 48.4701H144.82V65.5399H149.68V46.0101H157.6V68.2802H162.73V46.0101H170.42V57.2701C170.399 60.1522 169.671 62.9851 168.3 65.5201H173.77C174.913 62.9199 175.502 60.1104 175.5 57.2701V42.9301V41.42H162.73V36.42H157.6V41.42H149.1L151.9 33.66H176.12V28.66H153.62L154.9 25.0699Z" fill="#323232"/>
<path d="M117.24 66.8H122.31L124.5 31.53H119.43L117.24 66.8Z" fill="#323232"/>
<path d="M133.87 31.53L135.38 63.25H140.45L138.94 31.53H133.87Z" fill="#323232"/>
</svg>
